<svg xmlns="http://www.w3.org/2000/svg" viewBox="0 0 512 512">
  <rect width="512" height="512" rx="100" fill="#9333ea"/>
  <g fill="white" transform="translate(106, 106) scale(0.58)">
    <path d="M259 0c-1.3 0-2.6.4-3.8 1.1L25.2 128.6c-2.3 1.4-3.8 3.9-3.8 6.7v242.5c0 2.8 1.5 5.3 3.8 6.7l230 127.5c1.2.7 2.5 1.1 3.8 1.1s2.6-.4 3.8-1.1l230-127.5c2.3-1.4 3.8-3.9 3.8-6.7V135.3c0-2.8-1.5-5.3-3.8-6.7L262.8 1.1c-1.2-.7-2.5-1.1-3.8-1.1zm0 31.5l199.5 110.6-199.5 110.6L59.5 142.1 259 31.5zm-214.5 134l199.5 110.6v221.2L44.5 386.7V165.5zm429 0v221.2L274.5 497.3V276.1l199.5-110.6z"/>
  </g>
</svg>